<?xml version="1.0" standalone="no"?>
<!DOCTYPE svg PUBLIC "-//W3C//DTD SVG 20010904//EN"
 "http://www.w3.org/TR/2001/REC-SVG-20010904/DTD/svg10.dtd">
<svg version="1.0" xmlns="http://www.w3.org/2000/svg"
 width="451.000000pt" height="451.000000pt" viewBox="0 0 451.000000 451.000000"
 preserveAspectRatio="xMidYMid meet">
<metadata>
Created by potrace 1.11, written by Peter Selinger 2001-2013
</metadata>
<g transform="translate(0.000000,451.000000) scale(0.100000,-0.100000)"
fill="#000000" stroke="none">
<path d="M2320 4313 c-18 -6 -93 -40 -137 -62 -18 -8 -33 -19 -33 -23 0 -5 -7
-8 -15 -8 -8 0 -15 -5 -15 -11 0 -8 -11 -9 -32 -4 -51 12 -207 15 -213 4 -4
-5 -15 -9 -25 -9 -10 0 -26 -7 -34 -16 -9 -8 -16 -12 -16 -8 0 4 -22 -16 -50
-44 -27 -28 -50 -56 -50 -62 0 -12 -25 -18 -107 -25 -76 -6 -104 -16 -165 -62
-35 -25 -60 -56 -89 -109 -23 -41 -47 -74 -55 -74 -41 0 -224 -147 -230 -184
-1 -6 -7 -31 -14 -56 -7 -25 -12 -64 -11 -87 2 -36 -2 -44 -31 -64 -43 -30
-83 -67 -83 -77 -1 -4 -6 -17 -13 -29 -7 -13 -10 -23 -6 -23 4 0 0 -8 -9 -17
-8 -10 -18 -36 -22 -58 -10 -56 -13 -175 -5 -205 5 -18 -3 -45 -27 -95 -27
-58 -31 -76 -24 -101 9 -31 2 -55 -15 -56 -47 -2 -120 -66 -134 -118 -13 -45
-13 -177 0 -185 5 -3 7 -12 3 -20 -3 -8 0 -15 6 -15 6 0 10 -3 10 -7 -1 -5 -1
-10 1 -13 1 -3 3 -16 6 -30 7 -39 47 -110 67 -116 9 -3 17 -9 17 -14 0 -5 12
-13 28 -18 29 -10 76 1 103 24 26 23 34 16 33 -27 -2 -75 55 -202 94 -207 12
-2 22 -7 22 -12 0 -4 12 -11 26 -14 18 -5 23 -10 16 -19 -21 -26 -19 -162 2
-186 9 -10 16 -22 16 -28 0 -16 48 -63 65 -63 8 0 15 -4 15 -9 0 -5 21 -14 47
-19 41 -9 51 -8 75 9 15 11 35 36 44 55 23 48 34 42 35 -18 0 -29 2 -71 4 -93
2 -37 5 -80 20 -355 6 -102 12 -160 20 -200 3 -14 8 -38 10 -55 3 -16 8 -37
10 -45 2 -8 7 -35 10 -60 4 -24 8 -47 10 -51 2 -3 7 -20 10 -38 3 -19 13 -50
21 -70 9 -20 17 -45 20 -56 4 -20 32 -80 47 -100 4 -5 26 -38 49 -72 22 -35
45 -63 49 -63 5 0 9 -6 9 -13 0 -7 13 -24 30 -39 16 -14 27 -28 25 -30 -5 -5
51 -58 60 -58 3 0 14 -8 24 -17 37 -33 50 -43 61 -43 5 0 10 -4 10 -8 0 -7 56
-33 64 -29 2 1 13 -7 25 -17 12 -11 21 -16 21 -13 0 4 16 -2 35 -13 37 -21 52
-25 155 -44 82 -16 220 -12 295 8 6 2 24 6 40 11 17 4 41 13 55 20 14 6 48 22
75 35 28 13 70 37 95 54 55 36 210 193 210 212 0 8 4 14 8 14 10 0 52 85 52
104 0 7 7 19 15 26 9 7 13 15 10 18 -3 3 -1 10 3 16 8 11 24 60 38 121 4 17 8
32 9 35 1 3 5 25 10 50 5 25 9 47 10 50 28 117 34 575 9 758 -2 17 -1 32 2 32
8 0 48 -22 54 -30 8 -11 64 -28 85 -26 48 5 134 39 161 64 54 50 90 132 98
225 4 57 5 58 48 63 49 5 79 12 113 26 38 16 76 48 69 60 -3 4 1 8 9 8 40 0
57 115 46 308 -3 44 0 65 9 71 32 20 72 138 72 213 0 45 -19 137 -30 148 -3 3
-11 17 -18 31 -12 22 -11 34 8 89 24 72 25 162 2 198 -8 12 -11 22 -7 22 5 0
1 8 -7 18 -9 9 -25 36 -37 59 -22 45 -58 77 -107 98 -31 13 -32 15 -32 78 0
50 -6 77 -26 118 -15 30 -34 60 -43 67 -9 6 -14 12 -10 12 5 0 2 6 -5 14 -7 8
-16 12 -20 9 -5 -2 -8 0 -8 6 0 5 -18 20 -40 32 -42 24 -44 27 -60 124 -11 62
-12 67 -25 100 -13 32 -71 99 -96 112 -77 39 -125 53 -181 57 -35 2 -66 5 -70
5 -5 1 -8 7 -8 15 0 17 -62 86 -78 86 -7 0 -12 4 -12 9 0 8 -46 28 -85 37 -5
2 -24 7 -41 12 -37 12 -135 8 -162 -7 -10 -6 -22 -8 -24 -6 -3 3 -17 -6 -32
-20 -32 -30 -34 -30 -55 -7 -32 36 -132 103 -143 96 -7 -4 -8 -3 -4 4 4 7 -13
17 -46 27 -28 8 -52 15 -52 14 -1 0 -8 -3 -16 -6z"/>
</g>
</svg>
